HIERARCHY
ROOT Hips
{
	OFFSET	0.00	0.00	0.00
	CHANNELS 6 Xposition Yposition Zposition Zrotation Xrotation Yrotation
	JOINT LeftUpperLeg
	{
		OFFSET	 0.100000	-0.066564	-0.000554
		CHANNELS 3 Zrotation Xrotation Yrotation
		JOINT LeftLowerLeg
		{
			OFFSET	 0.002447	-0.463436	-0.005172
			CHANNELS 3 Zrotation Xrotation Yrotation
			JOINT LeftFoot
			{
				OFFSET	-0.002447	-0.420480	-0.020576
				CHANNELS 3 Zrotation Xrotation Yrotation
				JOINT LeftToes
				{
					OFFSET	 0.003734	-0.104922	 0.126407
					CHANNELS 3 Zrotation Xrotation Yrotation
					End Site
					{
						OFFSET	 0.000000	 0.000000	 0.059955
					}
				}
			}
		}
	}
	JOINT RightUpperLeg
	{
		OFFSET	-0.100000	-0.066564	-0.000554
		CHANNELS 3 Zrotation Xrotation Yrotation
		JOINT RightLowerLeg
		{
			OFFSET	-0.002447	-0.463436	-0.005146
			CHANNELS 3 Zrotation Xrotation Yrotation
			JOINT RightFoot
			{
				OFFSET	 0.002447	-0.420479	-0.020602
				CHANNELS 3 Zrotation Xrotation Yrotation
				JOINT RightToes
				{
					OFFSET	-0.003734	-0.104922	 0.126407
					CHANNELS 3 Zrotation Xrotation Yrotation
					End Site
					{
						OFFSET	-0.000000	 0.000000	 0.059955
					}
				}
			}
		}
	}
	JOINT Spine
	{
		OFFSET	 0.000000	 0.099235	-0.012273
		CHANNELS 3 Zrotation Xrotation Yrotation
		JOINT Chest
		{
			OFFSET	-0.000001	 0.116455	-0.014223
			CHANNELS 3 Zrotation Xrotation Yrotation
			JOINT UpperChest
			{
				OFFSET	 0.000001	 0.133602	-0.016265
				CHANNELS 3 Zrotation Xrotation Yrotation
				JOINT LeftShoulder
				{
					OFFSET	 0.061058	 0.091105	 0.007056
					CHANNELS 3 Zrotation Xrotation Yrotation
					JOINT LeftUpperArm
					{
						OFFSET	 0.133942	-0.002659	-0.026009
						CHANNELS 3 Zrotation Xrotation Yrotation
						JOINT LeftLowerArm
						{
							OFFSET	 0.274047	 0.000000	 0.000000
							CHANNELS 3 Zrotation Xrotation Yrotation
							JOINT LeftHand
							{
								OFFSET	 0.276145	 0.000000	 0.000000
								CHANNELS 3 Zrotation Xrotation Yrotation
								End Site
								{
									OFFSET	 0.165687	 0.000000	 0.000000
								}
							}
						}
					}
				}
				JOINT Neck
				{
					OFFSET	 0.000000	 0.150325	 0.007929
					CHANNELS 3 Zrotation Xrotation Yrotation
					JOINT Head
					{
						OFFSET	 0.000000	 0.103218	 0.031424
						CHANNELS 3 Zrotation Xrotation Yrotation
						End Site
						{
							OFFSET	 0.000000	 0.061931	 0.018855
						}
					}
				}
				JOINT RightShoulder
				{
					OFFSET	-0.061057	 0.091105	 0.007056
					CHANNELS 3 Zrotation Xrotation Yrotation
					JOINT RightUpperArm
					{
						OFFSET	-0.133943	-0.002660	-0.026009
						CHANNELS 3 Zrotation Xrotation Yrotation
						JOINT RightLowerArm
						{
							OFFSET	-0.274047	 0.000000	 0.000000
							CHANNELS 3 Zrotation Xrotation Yrotation
							JOINT RightHand
							{
								OFFSET	-0.276145	 0.000000	 0.000000
								CHANNELS 3 Zrotation Xrotation Yrotation
								End Site
								{
									OFFSET	-0.165687	 0.000000	 0.000000
								}
							}
						}
					}
				}
			}
		}
	}
}
MOTION
Frames:    9
Frame Time: 0.03333334
 0.071210	 1.049350	-1.161040	-1.321077	-2.099416	 74.301060	-0.361816	 10.022630	-6.493012	 0.002377	 0.092532	 0.000567	 3.588551	-9.412846	 9.341160	-0.000011	-0.487466	-0.000072	-0.517212	-19.949600	 1.485664	 1.804658	 43.995330	-0.729500	 21.925490	-2.625437	-3.632709	 0.000176	-11.637190	 2.263943	-0.304599	 0.023459	-1.010910	-0.000000	 0.000000	 0.000000	-0.610029	 0.051644	-2.024424	-2.475222	 2.782778	 18.860220	-80.534130	 3.497493	 1.292846	-23.340070	 25.151070	-50.439660	 40.063680	 25.544150	-29.367630	 0.438979	 10.561240	 13.636490	 0.371725	 10.420660	 13.525670	 1.906728	 5.090176	-10.202040	 83.449690	-9.527584	 2.892861	 20.679330	 29.424040	 64.074550	-42.865700	 21.928360	 15.330530
 0.073270	 1.049330	-1.162030	-1.178792	-2.351853	 75.553060	-0.021928	 10.179180	-7.380826	 0.006556	 0.187138	 0.000233	 3.584719	-9.461024	 8.968050	-0.000927	-0.710840	 0.000118	-0.247717	-19.853450	 0.386425	 1.639666	 41.709070	-0.623946	 21.724320	-4.215825	-3.293260	-0.000401	-7.662730	 1.671589	-0.206619	 0.133542	-0.987661	-0.000000	 0.000000	 0.000000	-0.409986	 0.272653	-1.977423	-2.376396	 2.829326	 18.704800	-80.507330	 3.634045	 1.310514	-23.331990	 25.127630	-50.363650	 40.162030	 25.493050	-29.256300	 0.557992	 10.665400	 13.422110	 0.373536	 10.437040	 13.377120	 2.159926	 4.834119	-10.331310	 83.236490	-9.350180	 2.902708	 20.654320	 29.258980	 64.075670	-43.242400	 22.006320	 15.443390
 0.075480	 1.049290	-1.162660	-1.019080	-2.603202	 76.738290	 0.292856	 10.154520	-8.431793	 0.024012	 0.709942	 0.000475	 3.668213	-9.758983	 8.823548	 0.000159	-0.801319	-0.000237	 0.014444	-19.805860	-0.328254	 1.638622	 39.273910	-0.583111	 21.481780	-4.319041	-3.552148	-0.000708	-6.537346	 1.713779	-0.109739	 0.248175	-0.957166	-0.000000	 0.000000	 0.000000	-0.214940	 0.497650	-1.916270	-2.358299	 2.769803	 18.633640	-80.342080	 3.973251	 1.120251	-23.484450	 24.760000	-50.123790	 40.177380	 25.524080	-29.204230	 0.613446	 10.631880	 13.247960	 0.437805	 10.398760	 13.186330	 2.345127	 4.552271	-10.579630	 83.055340	-8.867502	 2.997662	 20.646410	 29.075750	 64.066860	-43.456350	 21.898510	 15.546430
 0.081370	 1.048750	-1.163040	-0.742614	-2.752958	 79.251190	 0.847891	 10.873380	-10.390640	 0.003190	 0.092615	 0.000529	 3.584914	-9.764039	 8.204893	 0.000064	-0.589601	 0.001144	 0.094135	-20.402270	-1.458843	 1.512755	 34.389920	-0.467629	 21.239050	-3.699336	-3.970270	 0.000138	-2.661410	 1.147825	-0.027036	 0.448798	-0.875175	-0.000000	 0.000000	 0.000000	-0.046917	 0.899076	-1.753430	-2.361971	 1.897906	 18.375690	-80.032990	 4.143192	 1.873182	-23.765230	 24.485510	-50.137970	 40.256250	 25.633720	-28.917770	 0.507157	 10.230330	 12.586820	 0.474807	 10.051970	 12.504270	 2.397228	 3.774368	-11.178640	 82.891520	-7.945446	 3.527220	 21.098920	 29.354700	 63.440770	-43.980510	 21.551520	 16.070480
 0.081370	 1.048750	-1.163040	-0.742614	-2.752958	 79.251190	 0.847891	 10.873380	-10.390640	 0.003190	 0.092615	 0.000529	 3.584914	-9.764039	 8.204893	 0.000064	-0.589601	 0.001144	 0.094135	-20.402270	-1.458843	 1.512755	 34.389920	-0.467629	 21.239050	-3.699336	-3.970270	 0.000138	-2.661410	 1.147825	-0.027036	 0.448798	-0.875175	-0.000000	 0.000000	 0.000000	-0.046917	 0.899076	-1.753430	-2.361971	 1.897906	 18.375690	-80.032990	 4.143192	 1.873182	-23.765230	 24.485510	-50.137970	 40.256250	 25.633720	-28.917770	 0.507157	 10.230330	 12.586820	 0.474807	 10.051970	 12.504270	 2.397228	 3.774368	-11.178640	 82.891520	-7.945446	 3.527220	 21.098920	 29.354700	 63.440770	-43.980510	 21.551520	 16.070480
 0.085240	 1.048160	-1.162950	-0.520373	-2.836120	 80.467700	 1.079156	 11.225230	-11.574300	 0.003333	 0.092634	-0.000535	 3.788050	-9.912117	 8.290370	 0.000228	-0.634515	 0.000610	 0.173905	-20.524770	-1.253533	 1.648722	 31.159870	-0.459644	 19.703010	-3.748935	-6.935120	 0.000427	-0.261817	 0.622985	 0.042320	 0.579824	-0.819539	-0.000000	 0.000000	 0.000000	 0.094852	 1.158598	-1.641461	-2.488573	 0.644940	 20.266220	-79.407280	 6.164196	 2.864759	-23.847350	 24.509110	-50.492040	 40.464140	 25.628970	-29.005420	 0.358676	 9.801489	 11.909840	 0.244409	 9.538041	 11.796300	 2.483540	 3.886299	-11.251220	 82.930790	-7.668211	 4.125087	 21.447660	 29.583610	 63.127270	-44.256460	 21.484460	 16.522480
 0.093070	 1.046600	-1.162030	-0.372140	-2.821275	 81.994870	 1.308317	 11.723610	-13.490000	 0.003516	 0.077412	 0.000608	 4.263366	-10.290640	 8.870660	 0.000504	-0.603239	 0.010035	-0.650174	-20.447530	-5.569961	 1.254884	 26.224590	-0.286352	 15.750870	-1.449770	-8.938853	-0.000241	 0.723139	 2.364290	 0.175560	 0.623257	-0.813437	-0.000000	 0.000000	 0.000000	 0.361699	 1.246744	-1.629564	-2.312381	-0.681428	 20.856850	-79.447810	 6.723270	 4.281914	-23.826080	 24.248680	-50.563100	 40.524410	 25.331770	-29.046490	-0.277377	 8.617414	 10.027530	-0.417964	 8.608077	 10.086050	 2.291342	 3.721612	-11.273400	 82.866540	-7.078854	 4.537166	 21.964670	 29.839010	 62.828860	-44.342430	 21.249780	 16.976580
 0.100020	 1.045150	-1.160840	-0.428430	-2.561483	 82.760900	 1.253710	 12.000150	-14.548190	 0.003573	 0.082230	 0.000646	 4.311359	-10.761310	 9.204124	-0.000007	-0.220322	 0.002452	-1.374851	-20.089950	-9.783045	 1.064696	 23.179350	-0.210966	 13.830450	-1.292740	-7.770661	-0.000800	 0.651674	 2.252178	 0.211371	 0.509355	-0.863023	-0.000000	 0.000000	 0.000000	 0.431490	 1.017410	-1.730146	-2.781897	-0.804767	 21.677970	-79.333800	 6.925647	 4.587927	-23.814500	 24.203520	-50.652900	 40.790100	 25.266280	-28.895880	-0.733757	 7.896197	 9.030707	-0.824462	 8.122266	 9.134204	 1.983552	 3.528907	-11.039070	 82.808520	-6.601039	 4.430716	 22.127820	 30.035640	 62.532300	-44.474120	 20.908510	 17.279260
 0.100020	 1.045150	-1.160840	-0.428430	-2.561483	 82.760900	 1.253710	 12.000150	-14.548190	 0.003573	 0.082230	 0.000646	 4.311359	-10.761310	 9.204124	-0.000007	-0.220322	 0.002452	-1.374851	-20.089950	-9.783045	 1.064696	 23.179350	-0.210966	 13.830450	-1.292740	-7.770661	-0.000800	 0.651674	 2.252178	 0.211371	 0.509355	-0.863023	-0.000000	 0.000000	 0.000000	 0.431490	 1.017410	-1.730146	-2.781897	-0.804767	 21.677970	-79.333800	 6.925647	 4.587927	-23.814500	 24.203520	-50.652900	 40.790100	 25.266280	-28.895880	-0.733757	 7.896197	 9.030707	-0.824462	 8.122266	 9.134204	 1.983552	 3.528907	-11.039070	 82.808520	-6.601039	 4.430716	 22.127820	 30.035640	 62.532300	-44.474120	 20.908510	 17.279260
